<svg width="25" height="16" viewBox="0 0 25 16" fill="none" xmlns="http://www.w3.org/2000/svg">
<path fill-rule="evenodd" clip-rule="evenodd" d="M11.3992 0.0194487C9.94613 0.223789 8.79731 0.559674 7.54609 1.14587C5.49205 2.10819 3.13569 3.9006 1.27202 5.91824C0.116545 7.16921 -0.000827385 7.36427 4.35007e-06 8.0321C0.00044468 8.34869 0.0240757 8.47047 0.127407 8.68813C0.334606 9.1247 1.63696 10.557 2.69776 11.515C5.40193 13.9571 8.00408 15.3746 10.733 15.8922C11.2235 15.9853 11.4655 16 12.5 16C13.5345 16 13.7765 15.9853 14.267 15.8922C17.747 15.2322 21.1764 13.0243 24.3621 9.39275C24.8724 8.81107 24.9993 8.5403 25 8.0321C25.0008 7.36509 24.8251 7.07576 23.6988 5.8903C20.5753 2.60268 17.4731 0.70711 14.2369 0.108668C13.8139 0.0304796 11.7763 -0.0336165 11.3992 0.0194487ZM13.4193 1.54799C15.7312 1.80024 18.1772 3.00213 20.6681 5.10977C21.6413 5.93326 23.4593 7.81347 23.4593 7.99653C23.4593 8.23727 21.6168 10.1189 20.3704 11.1511C17.6026 13.443 14.7092 14.6239 12.1575 14.503C9.49675 14.377 6.7896 13.0758 3.94174 10.554C2.93887 9.66595 1.54067 8.18065 1.54067 8.00338C1.54067 7.83704 2.9189 6.36968 3.88866 5.50353C5.48931 4.07403 7.02826 3.04708 8.58277 2.37118C9.51672 1.96512 10.6521 1.64785 11.5215 1.55003C12.0583 1.48963 12.8765 1.48875 13.4193 1.54799ZM11.3764 2.76305C8.89262 3.2955 7.11594 5.47486 7.12054 7.98351C7.12259 9.1196 7.40166 10.0522 8.02199 10.9964C8.26442 11.3653 9.11083 12.2091 9.47479 12.4447C11.356 13.6622 13.6408 13.6663 15.5089 12.4555C15.887 12.2105 16.7313 11.3719 16.978 10.9964C17.9224 9.55899 18.1442 7.81683 17.5848 6.22822C16.9956 4.55453 15.5455 3.24034 13.8031 2.80085C13.1995 2.64856 11.9978 2.62985 11.3764 2.76305ZM13.5191 4.31365C15.5377 4.88016 16.7233 6.89154 16.2407 8.9311C16.1996 9.10483 16.069 9.44377 15.9505 9.68431C15.5588 10.4797 14.983 11.0508 14.1879 11.4324C13.5754 11.7264 13.1832 11.8154 12.5 11.8154C11.8178 11.8154 11.4259 11.7266 10.8121 11.4333C9.28618 10.704 8.41471 9.02965 8.70377 7.38249C8.99576 5.71852 10.2803 4.47314 11.9863 4.20023C12.2992 4.15018 13.1649 4.21422 13.5191 4.31365Z" fill="#777777"/>
</svg>
