<svg width="15" height="20" viewBox="0 0 15 20" fill="none" xmlns="http://www.w3.org/2000/svg">
<path fill-rule="evenodd" clip-rule="evenodd" d="M7.08786 0.0237033C6.65106 0.0781177 6.11631 0.213471 5.75002 0.362301C4.02244 1.06431 2.9653 2.79709 3.05959 4.77212C3.15863 6.84703 4.46193 8.463 6.41495 8.93248C7.50163 9.19372 8.44372 9.10762 9.36968 8.66245C10.37 8.18159 11.0878 7.4548 11.5558 6.44903C12.6449 4.10875 11.5626 1.33323 9.16777 0.324901C8.55281 0.065964 7.71846 -0.0548478 7.08786 0.0237033ZM8.24493 0.998769C9.6455 1.29208 10.6494 2.2912 10.9721 3.71301C11.0641 4.11826 11.0741 4.90863 10.992 5.28765C10.7836 6.25022 10.2641 7.05731 9.5381 7.54636C8.63559 8.15434 7.38944 8.33281 6.39797 7.99609C5.15632 7.57442 4.20742 6.48046 3.97458 5.20219C3.91164 4.85669 3.91882 4.14956 3.98862 3.81539C4.28503 2.39653 5.36654 1.29204 6.7654 0.979665C7.14072 0.895868 7.7938 0.904269 8.24493 0.998769ZM3.12514 9.89402C1.73285 10.6045 1.56233 10.7031 1.33929 10.9261C1.08464 11.1807 0.823235 11.6249 0.739027 11.9461C0.656121 12.2624 -0.0261189 18.6216 0.000774072 18.8273C0.0616613 19.2926 0.441734 19.7696 0.873323 19.9224C1.08174 19.9961 1.41164 20 7.50075 20C13.5899 20 13.9198 19.9961 14.1282 19.9224C14.5601 19.7695 14.9333 19.3002 14.9991 18.8273C15.0277 18.6223 14.3478 12.2714 14.2625 11.9461C14.1796 11.63 13.9226 11.1934 13.6661 10.9331C13.4361 10.6997 13.2969 10.6192 11.8601 9.8884C10.0937 8.98996 10.2453 9.03047 9.63206 9.29308C8.27636 9.87356 6.72619 9.86844 5.33578 9.27884C5.10942 9.18284 4.86579 9.10527 4.79431 9.10642C4.71246 9.10775 4.09514 9.39901 3.12514 9.89402ZM5.85162 10.4211C7.13467 10.7716 8.67488 10.6776 9.89342 10.1743L10.1918 10.0511L11.5251 10.7316C12.7183 11.3406 12.8811 11.4362 13.0747 11.6415C13.2123 11.7874 13.3155 11.9457 13.3581 12.0761C13.4262 12.2844 14.0979 18.231 14.0979 18.6252C14.0979 18.7989 14.0774 18.8547 13.9751 18.9585L13.8523 19.0831H11.751H9.64975L9.59957 18.8379C9.57201 18.7031 9.2898 17.3646 8.97251 15.8635L8.39557 13.1342L8.58895 12.9963C9.15097 12.5954 9.27085 12.4162 9.27085 11.977C9.27085 11.6304 9.16114 11.3859 8.90158 11.1541C8.63584 10.9167 8.44158 10.885 7.36133 10.9029C6.5463 10.9164 6.45709 10.9254 6.30317 11.0094C5.92445 11.2161 5.72094 11.549 5.71955 11.9641C5.71813 12.3865 5.86646 12.6161 6.36973 12.9705L6.60437 13.1357L6.02823 15.8642C5.71132 17.3649 5.42949 18.7031 5.40192 18.8379L5.35175 19.0831H3.25049H1.14923L1.0264 18.9585C0.924126 18.8547 0.903578 18.7989 0.903578 18.6252C0.903578 18.2373 1.57527 12.2846 1.64212 12.0801C1.67856 11.9685 1.7939 11.7817 1.90089 11.6609C2.0759 11.4634 2.22121 11.3784 3.45979 10.7497L4.82574 10.0563L5.16527 10.1914C5.352 10.2656 5.66085 10.369 5.85162 10.4211ZM8.37523 11.9482C8.38595 12.0245 8.30779 12.0962 7.94339 12.3443L7.49844 12.6473L7.0584 12.3405C6.65148 12.0569 6.55975 11.9499 6.64719 11.8612C6.66308 11.8451 7.05542 11.837 7.51911 11.8434C8.3501 11.8547 8.36233 11.8562 8.37523 11.9482ZM3.16943 13.3229C3.00585 13.4889 2.99614 13.7735 3.14796 13.9528L3.24931 14.0724L4.28965 14.0853C5.0253 14.0943 5.36541 14.0832 5.45088 14.0473C5.71497 13.9363 5.77191 13.4905 5.54706 13.2942C5.4392 13.2 5.41642 13.1982 4.36466 13.1982H3.29226L3.16943 13.3229ZM7.64206 13.9125C7.79392 14.5954 8.71933 18.9995 8.71933 19.0393C8.71933 19.0683 8.30758 19.0831 7.50075 19.0831C6.71274 19.0831 6.28216 19.068 6.28216 19.0403C6.28216 19.0052 7.32191 14.0394 7.39599 13.7206C7.40948 13.6627 7.44999 13.6246 7.49819 13.6246C7.56243 13.6246 7.59055 13.6809 7.64206 13.9125Z" fill="#777777"/>
</svg>
