<svg width="16" height="16" viewBox="0 0 16 16" fill="none" xmlns="http://www.w3.org/2000/svg">
<path fill-rule="evenodd" clip-rule="evenodd" d="M7.36801 0.0308802C4.70157 0.24765 2.32548 1.77121 1.00942 4.10795C-0.0959865 6.07064 -0.305687 8.47325 0.440562 10.6251C0.834582 11.7613 1.42404 12.7103 2.28198 13.5898C4.68581 16.0541 8.3944 16.7005 11.4958 15.1956C13.1693 14.3835 14.5599 12.9515 15.301 11.2769C16.5211 8.52002 16.1262 5.40009 14.2557 3.0193C13.8166 2.46035 12.9414 1.66969 12.3316 1.28108C11.6515 0.847679 10.8093 0.476965 10.0632 0.282625C9.49643 0.134953 9.11971 0.0719229 8.54495 0.028528C8.03402 -0.0100604 7.86717 -0.00971947 7.36801 0.0308802ZM9.03961 1.54275C9.72994 1.66557 10.2241 1.82248 10.8256 2.10985C13.3507 3.31614 14.8241 5.98123 14.4991 8.75458C14.2139 11.1897 12.5902 13.2665 10.3018 14.1232C7.42116 15.2017 4.2048 14.1504 2.51737 11.5788C2.02995 10.836 1.70518 9.99838 1.52799 9.02709C1.4453 8.57391 1.4453 7.43494 1.52799 6.98177C1.65899 6.26369 1.81165 5.7829 2.10012 5.18004C3.07599 3.14038 4.99024 1.77939 7.28272 1.4953C7.64757 1.45006 8.67458 1.47781 9.03961 1.54275ZM7.65798 3.00191C7.57355 3.04698 7.45841 3.14918 7.40212 3.22901L7.29978 3.3742L7.28954 5.74898C7.28211 7.47176 7.29009 8.16117 7.31871 8.26009C7.35133 8.37289 7.55935 8.59839 8.52226 9.56484C9.76235 10.8095 9.87653 10.902 10.1732 10.902C10.7002 10.902 11.046 10.3619 10.828 9.87931C10.7773 9.76698 10.4854 9.45214 9.73786 8.70325L8.71702 7.68058L8.70774 5.53007L8.69846 3.37955L8.60519 3.24612C8.45601 3.03266 8.29902 2.94591 8.03695 2.93196C7.8496 2.92201 7.78557 2.9338 7.65798 3.00191Z" fill="#777777"/>
</svg>
