<svg width="16" height="19" viewBox="0 0 16 19" fill="none" xmlns="http://www.w3.org/2000/svg">
<path fill-rule="evenodd" clip-rule="evenodd" d="M6.97242 0.0610945C5.25174 0.294862 3.72655 1.0219 2.49194 2.19684C-0.649969 5.187 -0.846209 10.0924 2.04757 13.3054C2.25586 13.5367 3.5997 14.8931 5.03388 16.3195C7.9024 19.1725 7.77454 19.0652 8.17899 18.9603C8.33898 18.9187 8.66123 18.6111 11.1869 16.0886C12.7427 14.5347 14.1216 13.1288 14.251 12.9643C15.6819 11.1458 16.2698 8.86622 15.8846 6.63006C15.2214 2.77939 11.8567 -0.0302007 7.94498 0.000245066C7.63892 0.00264204 7.20129 0.0300179 6.97242 0.0610945ZM8.71759 1.38586C9.58749 1.49368 10.2115 1.67956 10.9719 2.05731C12.8802 3.00542 14.17 4.74894 14.5645 6.91349C14.6589 7.43183 14.6572 8.54574 14.5611 9.06807C14.3584 10.1694 13.942 11.1295 13.2841 12.0125C13.144 12.2006 11.9768 13.4043 10.5218 14.8613L8.00214 17.3845L5.78355 15.1767C3.30536 12.7107 2.84243 12.2201 2.47816 11.6742C0.8028 9.16299 1.01852 5.89007 3.01051 3.59705C4.38614 2.01349 6.66328 1.13124 8.71759 1.38586ZM7.55718 4.24595C6.1953 4.45159 5.12321 5.38998 4.74653 6.70609C4.66913 6.97661 4.65122 7.14297 4.65185 7.58633C4.65274 8.23157 4.71386 8.50109 4.98552 9.05815C5.39921 9.90647 6.12313 10.5141 7.07237 10.8099C7.3461 10.8952 7.47345 10.9083 8.0209 10.9072C8.62425 10.906 8.67164 10.8996 9.05375 10.768C10.1596 10.3873 10.9627 9.53225 11.272 8.40634C11.3873 7.98658 11.3779 7.14209 11.2531 6.70609C10.9856 5.77152 10.349 4.99915 9.48826 4.56492C8.9645 4.30067 8.11934 4.16105 7.55718 4.24595ZM8.63656 5.6711C9.27267 5.86854 9.80836 6.44974 9.95763 7.10445C10.0688 7.59221 10.0203 8.03809 9.80798 8.47796C9.29105 9.54886 7.87757 9.91744 6.86753 9.24465C5.85906 8.57291 5.68583 7.1354 6.50401 6.22766C7.04021 5.63275 7.84035 5.42396 8.63656 5.6711Z" fill="#777777"/>
</svg>
