<svg width="14" height="12" viewBox="0 0 14 12" fill="none" xmlns="http://www.w3.org/2000/svg">
<path fill-rule="evenodd" clip-rule="evenodd" d="M2.41598 0.0514466C1.28397 0.284769 0.390449 1.1036 0.107411 2.16713C0.0760113 2.28508 0.0388601 2.51435 0.0248833 2.67661C-0.00829442 3.06112 -0.00829442 8.93312 0.0248833 9.31764C0.0388601 9.4799 0.0760113 9.70917 0.107411 9.82712C0.395979 10.9114 1.32454 11.7445 2.4785 11.9545C2.81209 12.0152 11.1896 12.0152 11.5232 11.9545C12.6558 11.7484 13.5365 10.9729 13.8842 9.87561L13.9603 9.6357L13.9694 7.88972C13.9744 6.92943 13.9713 6.10647 13.9625 6.06094C13.9349 5.9175 13.7939 5.74584 13.636 5.66341C13.302 5.48898 12.9071 5.61133 12.7204 5.94712L12.6555 6.06376L12.6414 7.76977C12.6285 9.33857 12.6233 9.48648 12.5764 9.60905C12.3701 10.1479 11.9276 10.5417 11.3784 10.6751C11.1284 10.7358 2.8733 10.7358 2.62327 10.6751C2.15009 10.5602 1.73387 10.2388 1.53244 9.83293C1.33493 9.43493 1.34618 9.66665 1.34618 5.99712C1.34618 2.32957 1.3351 2.559 1.53138 2.16342C1.71389 1.79557 2.04811 1.51269 2.49001 1.35198C2.65159 1.29323 2.66059 1.29296 5.02796 1.27931C7.40191 1.26564 7.40383 1.26559 7.51678 1.20758C7.66222 1.13292 7.81838 0.966609 7.86195 0.839992C7.88093 0.784787 7.89113 0.664914 7.88485 0.570497C7.87154 0.369749 7.78029 0.22306 7.58814 0.0935101L7.46844 0.012795L5.0603 0.00778362C2.82162 0.00314543 2.63555 0.00621091 2.41598 0.0514466ZM9.98469 0.0634952C9.48091 0.288527 9.49989 0.994731 10.0157 1.21752C10.1106 1.25852 10.2335 1.26748 10.8571 1.27891L11.5873 1.2923L11.3149 1.5322C6.30408 5.94387 6.61993 5.65169 6.56928 5.92158C6.52754 6.14392 6.69632 6.44674 6.92712 6.56354C7.09845 6.65028 7.39072 6.64714 7.54685 6.55691C7.61026 6.52025 8.77754 5.50665 10.1408 4.30445C11.504 3.10225 12.6306 2.11464 12.6444 2.10976C12.6588 2.10462 12.6697 2.42028 12.67 2.85614L12.6707 3.61139L12.7465 3.74467C12.9816 4.15795 13.6068 4.18277 13.878 3.78959C13.9957 3.61893 14.0065 3.44988 13.9976 1.91701C13.9885 0.35922 13.994 0.412505 13.8209 0.215569C13.7772 0.165829 13.6784 0.0969755 13.6014 0.0625622L13.4613 0H11.7941H10.1269L9.98469 0.0634952Z" fill="black"/>
</svg>
