<svg width="247" height="21" viewBox="0 0 247 21" fill="none" xmlns="http://www.w3.org/2000/svg">
<path d="M15.8047 13.2969H13.5859V-4.76837e-07H10.2969V13.2812H3.64062V-4.76837e-07H0.390625V16H12.3906V19.7812H15.6094L15.8047 13.2969ZM23.2637 16.2344C26.2324 16.2344 28.2324 14.7891 28.7012 12.5625L25.623 12.3594C25.2871 13.2734 24.4277 13.75 23.3184 13.75C21.6543 13.75 20.5996 12.6484 20.5996 10.8594V10.8516H28.7715V9.9375C28.7715 5.85938 26.3027 3.84375 23.1309 3.84375C19.5996 3.84375 17.3105 6.35156 17.3105 10.0547C17.3105 13.8594 19.5684 16.2344 23.2637 16.2344ZM20.5996 8.78906C20.6699 7.42187 21.709 6.32812 23.1855 6.32812C24.6309 6.32812 25.6309 7.35937 25.6387 8.78906H20.5996ZM34.123 4H30.9434V16H34.123V11.2891H38.2246V16H41.3809V4H38.2246V8.67187H34.123V4ZM42.7793 6.61719H46.6152V16H49.7871V6.61719H53.6543V4H42.7793V6.61719ZM55.6719 20.5H59V14.0781H59.1016C59.5625 15.0781 60.5703 16.1953 62.5078 16.1953C65.2422 16.1953 67.375 14.0312 67.375 10.0156C67.375 5.89062 65.1484 3.84375 62.5156 3.84375C60.5078 3.84375 59.5469 5.03906 59.1016 6.01562H58.9531V4H55.6719V20.5ZM58.9297 10C58.9297 7.85938 59.8359 6.49219 61.4531 6.49219C63.1016 6.49219 63.9766 7.92188 63.9766 10C63.9766 12.0937 63.0859 13.5469 61.4531 13.5469C59.8516 13.5469 58.9297 12.1406 58.9297 10ZM72.7734 7.6875V4H69.5938V16H75.2656C78.4453 16 80.3125 14.3359 80.3203 11.8594C80.3125 9.33594 78.4453 7.6875 75.2656 7.6875H72.7734ZM81.6094 16H84.9375V4H81.6094V16ZM72.7734 10.3047H75.2656C76.3828 10.3047 77.1719 10.9609 77.1875 11.8828C77.1719 12.7578 76.3828 13.3828 75.2656 13.3828H72.7734V10.3047ZM95.0742 8.10937H87.7773V10.75H95.0742V8.10937ZM97.293 12.6016C97.3789 14.9453 99.4961 16.2344 102.379 16.2344C105.332 16.2344 107.449 14.9062 107.449 12.6719C107.449 11 106.254 9.95312 104.785 9.85938V9.73437C106.277 9.375 107.16 8.5 107.16 7.22656C107.16 5.13281 105.348 3.84375 102.41 3.84375C99.7227 3.84375 97.6367 5.20312 97.6133 7.35937H100.824C100.848 6.65625 101.566 6.16406 102.559 6.16406C103.543 6.16406 104.16 6.71094 104.16 7.51563C104.16 8.24219 103.582 8.77344 102.551 8.77344H100.824V10.9531H102.551C103.59 10.9531 104.285 11.5469 104.285 12.4141C104.285 13.3672 103.449 13.8828 102.363 13.8828C101.293 13.8828 100.551 13.3984 100.52 12.6016H97.293ZM112.912 16.2266C114.686 16.2266 115.834 15.4531 116.42 14.3359H116.514V16H119.67V7.90625C119.67 5.04687 117.248 3.84375 114.576 3.84375C111.701 3.84375 109.811 5.21875 109.35 7.40625L112.428 7.65625C112.654 6.85937 113.365 6.27344 114.561 6.27344C115.693 6.27344 116.342 6.84375 116.342 7.82812V7.875C116.342 8.64844 115.521 8.75 113.436 8.95312C111.061 9.17188 108.928 9.96875 108.928 12.6484C108.928 15.0234 110.623 16.2266 112.912 16.2266ZM113.865 13.9297C112.842 13.9297 112.107 13.4531 112.107 12.5391C112.107 11.6016 112.881 11.1406 114.053 10.9766C114.779 10.875 115.967 10.7031 116.365 10.4375V11.7109C116.365 12.9687 115.326 13.9297 113.865 13.9297ZM125.432 4H122.252V16H125.432V11.2891H129.533V16H132.689V4H129.533V8.67187H125.432V4ZM142.303 16H145.404V4H140.053C136.943 4 135.006 5.59375 135.021 7.9375C135.014 9.39844 135.834 10.5391 137.264 11.1641L134.678 16H137.865L140.17 11.6719H142.303V16ZM142.303 9.42187H140.021C138.811 9.42187 138.178 8.8125 138.193 8.03125C138.178 7.26562 138.826 6.60937 140.053 6.60937H142.303V9.42187ZM146.807 6.61719H150.643V16H153.814V6.61719H157.682V4H146.807V6.61719ZM164.691 16.2344C168.332 16.2344 170.598 13.7422 170.598 10.0469C170.598 6.32812 168.332 3.84375 164.691 3.84375C161.051 3.84375 158.785 6.32812 158.785 10.0469C158.785 13.7422 161.051 16.2344 164.691 16.2344ZM164.707 13.6562C163.027 13.6562 162.168 12.1172 162.168 10.0234C162.168 7.92969 163.027 6.38281 164.707 6.38281C166.355 6.38281 167.215 7.92969 167.215 10.0234C167.215 12.1172 166.355 13.6562 164.707 13.6562ZM178.184 16.2344C181.379 16.2344 183.387 14.3594 183.543 11.6016H180.402C180.207 12.8828 179.363 13.6016 178.223 13.6016C176.668 13.6016 175.66 12.2969 175.66 10C175.66 7.73437 176.676 6.4375 178.223 6.4375C179.441 6.4375 180.223 7.24219 180.402 8.4375H183.543C183.402 5.66406 181.301 3.84375 178.168 3.84375C174.527 3.84375 172.277 6.36719 172.277 10.0469C172.277 13.6953 174.488 16.2344 178.184 16.2344ZM184.877 6.61719H188.713V16H191.885V6.61719H195.752V4H184.877V6.61719ZM200.949 11.6094V4H197.77V16H201.074L205.379 8.36719V16H208.551V4H205.27L200.949 11.6094ZM213.164 16.2031C214.164 16.2031 215.031 15.3672 215.039 14.3281C215.031 13.3047 214.164 12.4687 213.164 12.4687C212.133 12.4687 211.281 13.3047 211.289 14.3281C211.281 15.3672 212.133 16.2031 213.164 16.2031ZM217.771 20.5H221.1V14.0781H221.201C221.662 15.0781 222.67 16.1953 224.607 16.1953C227.342 16.1953 229.475 14.0312 229.475 10.0156C229.475 5.89062 227.248 3.84375 224.615 3.84375C222.607 3.84375 221.646 5.03906 221.201 6.01562H221.053V4H217.771V20.5ZM221.029 10C221.029 7.85938 221.936 6.49219 223.553 6.49219C225.201 6.49219 226.076 7.92188 226.076 10C226.076 12.0937 225.186 13.5469 223.553 13.5469C221.951 13.5469 221.029 12.1406 221.029 10ZM237.436 20.0781H240.756V16.2344C244.428 16.2344 246.982 13.7031 246.982 10.0469C246.982 6.36719 244.428 3.84375 240.756 3.84375V-4.76837e-07H237.436V3.84375C233.764 3.84375 231.209 6.36719 231.209 10.0469C231.209 13.7031 233.764 16.2344 237.436 16.2344V20.0781ZM240.756 13.6406V6.4375C242.545 6.4375 243.568 8.03906 243.568 10.0469C243.568 12.0547 242.545 13.6406 240.756 13.6406ZM237.436 13.6406C235.662 13.6406 234.631 12.0547 234.631 10.0469C234.631 8.03906 235.646 6.4375 237.436 6.4375V13.6406Z" fill="black"/>
</svg>
