<svg width="16" height="16" viewBox="0 0 16 16" fill="none" xmlns="http://www.w3.org/2000/svg">
<path fill-rule="evenodd" clip-rule="evenodd" d="M7.2824 0.0189325C5.73632 0.170303 4.30738 0.739883 3.05451 1.70416C2.44439 2.17374 1.65206 3.05623 1.19418 3.77612C0.996433 4.08703 0.611496 4.87487 0.4736 5.25085C0.319419 5.67128 0.15509 6.31376 0.0742252 6.81229C-0.0247417 7.42247 -0.0247417 8.58097 0.0742252 9.19115C0.214157 10.0537 0.435517 10.7511 0.81441 11.5231C1.22838 12.3665 1.65882 12.9643 2.34811 13.6532C3.03744 14.3421 3.63562 14.7723 4.4795 15.1861C5.25195 15.5647 5.94966 15.786 6.81274 15.9258C7.42327 16.0247 8.58243 16.0247 9.19296 15.9258C10.056 15.786 10.7538 15.5647 11.5262 15.1861C12.3701 14.7723 12.9683 14.3421 13.6576 13.6532C14.3469 12.9643 14.7773 12.3665 15.1913 11.5231C15.4662 10.9628 15.6045 10.5957 15.7527 10.0327C15.95 9.28289 16 8.87188 16 8.00172C16 7.13156 15.95 6.72055 15.7527 5.97077C15.6045 5.40776 15.4662 5.04061 15.1913 4.48038C14.7773 3.63699 14.3469 3.03914 13.6576 2.35021C12.9683 1.66131 12.3701 1.23112 11.5262 0.817383C10.7545 0.439051 10.043 0.213341 9.20862 0.08216C8.74826 0.00979267 7.72032 -0.0239495 7.2824 0.0189325ZM8.74789 1.27425C10.275 1.44237 11.673 2.11902 12.781 3.22632C14.0809 4.52549 14.7677 6.17629 14.7677 8.00172C14.7677 9.82715 14.0809 11.4779 12.781 12.7771C11.4811 14.0763 9.82932 14.7627 8.00285 14.7627C6.17638 14.7627 4.52463 14.0763 3.22472 12.7771C1.92481 11.4779 1.23803 9.82715 1.23803 8.00172C1.23803 6.17629 1.92481 4.52549 3.22472 3.22632C4.31746 2.13421 5.73006 1.44443 7.21988 1.2755C7.56458 1.23644 8.39815 1.23575 8.74789 1.27425ZM4.73127 7.35899C4.5443 7.40916 4.362 7.58764 4.30562 7.77573C4.2225 8.05296 4.36416 8.37097 4.62752 8.49837L4.76547 8.56513H8.00285H11.2402L11.3782 8.49837C11.6433 8.37013 11.7832 8.05308 11.6989 7.77182C11.64 7.57518 11.4393 7.39204 11.235 7.34847C10.9762 7.29332 4.9397 7.30309 4.73127 7.35899Z" fill="#E43D51"/>
</svg>
