<svg width="16" height="11" viewBox="0 0 16 11" fill="none" xmlns="http://www.w3.org/2000/svg">
<path fill-rule="evenodd" clip-rule="evenodd" d="M14.3947 0.0380967C14.0654 0.137921 14.0553 0.147132 9.87491 4.14038L5.76173 8.06948L3.90057 6.29258C2.17178 4.64207 2.02443 4.50899 1.82909 4.42158C1.33257 4.19944 0.804548 4.26963 0.410621 4.61013C0.0980822 4.88027 -0.0564044 5.3101 0.0187901 5.70031C0.0957676 6.09975 0.0474102 6.04772 2.64259 8.52308C4.91275 10.6884 5.05329 10.8166 5.24547 10.8967C5.48882 10.9981 5.82563 11.0291 6.05093 10.9707C6.43169 10.8719 6.2686 11.0197 11.1438 6.35578C16.1943 1.5241 15.9058 1.82001 15.9826 1.39165C16.0888 0.798652 15.6997 0.221208 15.0709 0.0387246C14.8938 -0.012653 14.5631 -0.012952 14.3947 0.0380967Z" fill="#39BC85"/>
</svg>
